# xmcd
#
# Track frame offsets: 
#        150
#        20465
#        38877
#        60265
#        82142
#        112120
#        133062
#        153047
#        178420
#        201320
#        223700
#
# Disc length: 3271 seconds
#
# Revision: 8
# Processed by: cddbd v1.5.2PL0 Copyright (c) Steve Scherf et al.
# Submitted via: ExactAudioCopy v1.0b3
#
DISCID=9d0cc50b
DTITLE=松任谷由実 - Kathmandu
DYEAR=1995
DGENRE=JPop
TTITLE0=KATHMANDU
TTITLE1=Take me home
TTITLE2=命の花
TTITLE3=Baby Pink
TTITLE4=Delphine
TTITLE5=輪舞曲
TTITLE6=Broken Barricade
TTITLE7=Midnight Scarecrow
TTITLE8=クロームの太陽
TTITLE9=Walk on, Walk on by
TTITLE10=Weaver of love ~ ORIHIME
EXTD=YEAR: 1995
EXTT0=
EXTT1=
EXTT2=
EXTT3=
EXTT4=
EXTT5=
EXTT6=
EXTT7=
EXTT8=
EXTT9=
EXTT10=
PLAYORDER=
